<svg width="22" height="20" fill="none" xmlns="http://www.w3.org/2000/svg"><path d="M11 1.875c-2.93 0-5.586 1.563-7.07 4.063-1.446 2.539-1.446 5.625 0 8.125A8.134 8.134 0 0011 18.125c2.89 0 5.547-1.523 7.031-4.063 1.446-2.5 1.446-5.585 0-8.124-1.484-2.5-4.14-4.063-7.031-4.063zM11 20c-3.594 0-6.875-1.875-8.672-5-1.797-3.086-1.797-6.875 0-10C4.125 1.914 7.406 0 11 0c3.555 0 6.836 1.914 8.633 5 1.797 3.125 1.797 6.914 0 10A9.926 9.926 0 0111 20zM7.836 6.836a.92.92 0 011.289 0l1.836 1.836 1.836-1.836c.39-.352.976-.352 1.328 0 .39.39.39.976 0 1.328L12.289 10l1.836 1.836c.39.39.39.976 0 1.328-.352.39-.938.39-1.328 0l-1.836-1.836-1.836 1.836a.856.856 0 01-1.29 0c-.39-.351-.39-.937 0-1.328L9.673 10 7.836 8.164c-.39-.351-.39-.937 0-1.328z" fill="#FF424E"/></svg>