<svg width="20" height="20" viewBox="0 0 20 20" fill="none" xmlns="http://www.w3.org/2000/svg">
<path d="M19.4125 3.82422C20.1938 3.0918 20.1938 1.90234 19.4125 1.16992C18.6313 0.4375 17.3625 0.4375 16.5813 1.16992L10 7.3457L3.41255 1.17578C2.6313 0.443359 1.36255 0.443359 0.581299 1.17578C-0.199951 1.9082 -0.199951 3.09766 0.581299 3.83008L7.1688 10L0.587549 16.1758C-0.193701 16.9082 -0.193701 18.0977 0.587549 18.8301C1.3688 19.5625 2.63755 19.5625 3.4188 18.8301L10 12.6543L16.5875 18.8242C17.3688 19.5566 18.6376 19.5566 19.4188 18.8242C20.2001 18.0918 20.2001 16.9023 19.4188 16.1699L12.8313 10L19.4125 3.82422Z" fill="#F6283D"/>
</svg>
